{
  "accessors": [
    {
      "bufferView": 1,
      "componentType": 5126,
      "count": 65532,
      "max": [
        1.680357813835144,
        3.4006307125091553,
        2.9142136573791504
      ],
      "min": [
        -3.482090950012207,
        -2.4536409378051758,
        -4.6903371810913086
      ],
      "type": "VEC3"
    },
    {
      "bufferView": 1,
      "byteOffset": 786384,
      "componentType": 5126,
      "count": 65532,
      "max": [
        0.99999487400054932,
        0.99994832277297974,
        0.99982655048370361
      ],
      "min": [
        -0.99999862909317017,
        -0.99996727705001831,
        -0.99996334314346313
      ],
      "type": "VEC3"
    },
    {
      "bufferView": 0,
      "componentType": 5125,
      "count": 339882,
      "max": [
        65531
      ],
      "min": [
        0
      ],
      "type": "SCALAR"
    },
    {
      "bufferView": 1,
      "byteOffset": 1572768,
      "componentType": 5126,
      "count": 43491,
      "max": [
        1.680357813835144,
        3.3966755867004395,
        2.9193251132965088
      ],
      "min": [
        -3.4726877212524414,
        -2.4496736526489258,
        -4.6903371810913086
      ],
      "type": "VEC3"
    },
    {
      "bufferView": 1,
      "byteOffset": 2094660,
      "componentType": 5126,
      "count": 43491,
      "max": [
        0.99999487400054932,
        0.99957352876663208,
        0.99995344877243042
      ],
      "min": [
        -0.99999862909317017,
        -0.99980634450912476,
        -0.99990326166152954
      ],
      "type": "VEC3"
    },
    {
      "bufferView": 0,
      "byteOffset": 1359528,
      "componentType": 5125,
      "count": 180285,
      "max": [
        43490
      ],
      "min": [
        0
      ],
      "type": "SCALAR"
    }
  ],
  "asset": {
    "extras": {
      "author": "Izaskun_Arraiz (https://sketchfab.com/Izaskun_Arraiz)",
      "license": "CC-BY-4.0 (http://creativecommons.org/licenses/by/4.0/)",
      "source": "https://sketchfab.com/3d-models/male-human-body-9350c70c446d403eadb43e87cd43f3cd",
      "title": "Male human body"
    },
    "generator": "Sketchfab-6.99.0",
    "version": "2.0"
  },
  "bufferViews": [
    {
      "buffer": 0,
      "byteLength": 2080668,
      "byteOffset": 0,
      "name": "floatBufferViews",
      "target": 34963
    },
    {
      "buffer": 0,
      "byteLength": 2616552,
      "byteOffset": 2080668,
      "byteStride": 12,
      "name": "floatBufferViews",
      "target": 34962
    }
  ],
  "buffers": [
    {
      "byteLength": 4697220,
      "uri": "scene.bin"
    }
  ],
  "materials": [
    {
      "doubleSided": true,
      "name": "material_0",
      "pbrMetallicRoughness": {
        "baseColorFactor": [
          1,
          1,
          1,
          1
        ],
        "metallicFactor": 0,
        "roughnessFactor": 0.59999999999999998
      }
    }
  ],
  "meshes": [
    {
      "primitives": [
        {
          "attributes": {
            "NORMAL": 1,
            "POSITION": 0
          },
          "indices": 2,
          "material": 0,
          "mode": 4
        }
      ]
    },
    {
      "primitives": [
        {
          "attributes": {
            "NORMAL": 4,
            "POSITION": 3
          },
          "indices": 5,
          "material": 0,
          "mode": 4
        }
      ]
    }
  ],
  "nodes": [
    {
      "children": [
        1
      ],
      "name": "RootNode (gltf orientation matrix)",
      "rotation": [
        -0.70710678118654746,
        -0,
        -0,
        0.70710678118654757
      ]
    },
    {
      "children": [
        2
      ],
      "name": "RootNode (model correction matrix)"
    },
    {
      "children": [
        3,
        4
      ],
      "name": "SkinBodyFinal.OBJ.cleaner.materialmerger.gles"
    },
    {
      "mesh": 0,
      "name": ""
    },
    {
      "mesh": 1,
      "name": ""
    }
  ],
  "scene": 0,
  "scenes": [
    {
      "name": "OSG_Scene",
      "nodes": [
        0
      ]
    }
  ]
}

